<svg width="525" height="525" viewBox="0 0 525 525" fill="none" xmlns="http://www.w3.org/2000/svg">
<ellipse cx="248.077" cy="253.846" rx="242.308" ry="236.538" fill="white"/>
<path d="M380.462 154.163C405.909 154.163 425.304 162.193 438.645 178.252C452.233 194.063 459.027 216.052 459.027 244.216C459.027 269.416 454.704 291.775 446.057 311.293C437.657 330.563 425.551 345.634 409.739 356.505C394.174 367.128 375.892 372.44 354.892 372.44C335.868 372.44 320.18 368.116 307.827 359.469C295.721 350.575 288.804 338.963 287.074 324.634L286.704 320.557C286.704 314.134 288.68 309.193 292.633 305.734C296.833 302.028 302.639 300.175 310.051 300.175C315.486 300.175 319.809 301.657 323.021 304.622C326.48 307.34 329.445 312.157 331.915 319.075C333.892 324.263 337.104 328.34 341.551 331.305C346.245 334.269 352.051 335.752 358.968 335.752C373.298 335.752 384.909 330.193 393.804 319.075C402.945 307.71 408.627 290.91 410.851 268.675C404.427 276.087 397.139 281.399 388.986 284.61C380.833 287.575 371.815 289.057 361.933 289.057C349.58 289.057 338.462 286.463 328.58 281.275C318.945 276.087 311.409 268.922 305.974 259.781C300.539 250.393 297.821 240.016 297.821 228.652C297.821 214.569 301.033 201.969 307.457 190.852C314.127 179.487 323.639 170.593 335.992 164.169C348.592 157.499 363.415 154.163 380.462 154.163ZM373.051 251.999C383.674 251.999 391.951 249.034 397.88 243.105C403.809 237.175 406.774 229.269 406.774 219.387C406.774 210.493 404.304 203.452 399.362 198.263C394.421 193.075 387.504 190.481 378.609 190.481C368.727 190.481 360.698 193.693 354.521 200.116C348.592 206.293 345.627 214.446 345.627 224.575C345.627 232.975 348.098 239.646 353.039 244.587C357.98 249.528 364.651 251.999 373.051 251.999Z" fill="black"/>
<path d="M240.911 329.081C246.099 329.081 250.052 330.81 252.769 334.269C255.487 337.728 256.846 342.052 256.846 347.24C256.846 353.663 254.746 359.469 250.546 364.657C246.593 369.599 241.158 372.069 234.24 372.069C222.381 372.069 204.716 371.205 181.246 369.475C176.552 369.228 167.905 368.734 155.305 367.993C142.705 367.252 132.822 366.881 125.658 366.881C122.446 366.881 117.752 367.993 111.575 370.216C110.34 370.463 107.869 371.081 104.164 372.069C100.705 373.057 97.74 373.552 95.2694 373.552C91.3164 373.552 87.9811 371.822 85.2635 368.363C82.7929 364.657 81.5576 359.222 81.5576 352.057C81.5576 344.152 83.4106 338.099 87.1164 333.899C90.8223 329.452 96.6282 325.499 104.534 322.04C121.334 314.628 137.146 305.24 151.969 293.875C167.04 282.263 179.022 269.787 187.916 256.446C197.058 243.105 201.628 230.381 201.628 218.275C201.628 208.64 199.405 201.599 194.958 197.152C190.758 192.457 183.964 190.11 174.575 190.11C163.705 190.11 154.934 193.075 148.264 199.004C141.84 204.934 138.628 213.21 138.628 223.834C138.628 238.41 131.34 245.699 116.764 245.699C109.846 245.699 104.411 243.722 100.458 239.769C96.7517 235.816 94.8988 230.134 94.8988 222.722C94.8988 210.369 98.1106 199.005 104.534 188.628C110.958 178.252 120.593 169.975 133.44 163.799C146.287 157.375 161.975 154.163 180.505 154.163C202.74 154.163 220.158 159.722 232.758 170.84C245.358 181.957 251.658 197.399 251.658 217.163C251.658 235.94 243.381 255.581 226.828 276.087C210.522 296.593 186.928 314.752 156.046 330.563L240.911 329.081Z" fill="black"/>
<path fill-rule="evenodd" clip-rule="evenodd" d="M262.5 463.235C373.363 463.235 463.235 373.363 463.235 262.5C463.235 151.637 373.363 61.7647 262.5 61.7647C151.637 61.7647 61.7647 151.637 61.7647 262.5C61.7647 373.363 151.637 463.235 262.5 463.235ZM262.5 525C407.475 525 525 407.475 525 262.5C525 117.525 407.475 0 262.5 0C117.525 0 0 117.525 0 262.5C0 407.475 117.525 525 262.5 525Z" fill="#FF3131"/>
<path fill-rule="evenodd" clip-rule="evenodd" d="M105.488 96.834C111.523 90.7991 121.307 90.7991 127.342 96.834L420.955 390.447C426.99 396.482 426.99 406.266 420.955 412.301C414.92 418.336 405.136 418.336 399.101 412.301L105.488 118.688C99.4532 112.653 99.4532 102.869 105.488 96.834Z" fill="#FF3131"/>
</svg>
